<svg width="1300" height="730" viewBox="0 0 1300 730" fill="none" xmlns="http://www.w3.org/2000/svg">
<mask id="mask0_511_1292" style="mask-type:alpha" maskUnits="userSpaceOnUse" x="0" y="0" width="1300" height="730">
<path d="M5 670C5 700.376 29.6243 725 60 725H1240C1270.38 725 1295 700.376 1295 670V5H5V670Z" fill="#7E4AF4" stroke="black" stroke-width="10"/>
</mask>
<g mask="url(#mask0_511_1292)">
<path opacity="0.6" d="M-550 772.794C-550.003 716.629 -539.581 661.013 -519.33 609.123C-499.079 557.232 -469.395 510.084 -431.974 470.369C-394.552 430.654 -350.126 399.151 -301.231 377.659C-252.337 356.167 -199.933 345.107 -147.011 345.11C75.5642 345.11 256 536.58 256 772.794" stroke="#B2FEBD" stroke-width="60" stroke-miterlimit="10"/>
<path opacity="0.8" d="M-459 772.794C-459 684.696 -426.129 600.207 -367.617 537.913C-309.106 475.619 -229.748 440.622 -147 440.622C-64.2525 440.622 15.106 475.619 73.6174 537.913C132.129 600.207 165 684.696 165 772.794" stroke="#B2FEBD" stroke-width="60" stroke-miterlimit="10"/>
<path d="M-372 772.794C-372 709.465 -348.295 648.73 -306.099 603.95C-263.903 559.17 -206.674 534.012 -147 534.012C-87.3263 534.012 -30.0967 559.17 12.099 603.95C54.2947 648.73 78 709.465 78 772.794" stroke="#B2FEBD" stroke-width="60" stroke-miterlimit="10"/>
<path opacity="0.6" d="M1039 772.794C1039 716.629 1049.42 661.013 1069.67 609.123C1089.92 557.232 1119.6 510.084 1157.03 470.369C1194.45 430.654 1238.87 399.151 1287.77 377.659C1336.66 356.167 1389.07 345.107 1441.99 345.11C1664.56 345.11 1845 536.58 1845 772.794" stroke="#B2FEBD" stroke-width="60" stroke-miterlimit="10"/>
<path opacity="0.8" d="M1130 772.794C1130 684.696 1162.87 600.207 1221.38 537.913C1279.89 475.619 1359.25 440.622 1442 440.622C1524.75 440.622 1604.11 475.619 1662.62 537.913C1721.13 600.207 1754 684.696 1754 772.794" stroke="#B2FEBD" stroke-width="60" stroke-miterlimit="10"/>
<path d="M1217 772.794C1217 709.465 1240.71 648.73 1282.9 603.95C1325.1 559.17 1382.33 534.012 1442 534.012C1501.67 534.012 1558.9 559.17 1601.1 603.95C1643.29 648.73 1667 709.465 1667 772.794" stroke="#B2FEBD" stroke-width="60" stroke-miterlimit="10"/>
</g>
</svg>
