<svg width="1320" height="740" viewBox="0 0 1320 740" fill="none" xmlns="http://www.w3.org/2000/svg">
<g opacity="0.5">
<mask id="mask0_511_1156" style="mask-type:alpha" maskUnits="userSpaceOnUse" x="0" y="0" width="1320" height="740">
<path d="M0 60C0 26.8629 26.8629 0 60 0H1260C1293.14 0 1320 26.8629 1320 60V740H0V60Z" fill="#7E4AF4"/>
</mask>
<g mask="url(#mask0_511_1156)">
<g opacity="0.1">
<path d="M864.046 -289.069C703.224 -220.312 590.182 -59.4904 590.182 126.97C590.182 216.703 615.821 299.445 660.105 369.367C658.94 358.879 658.94 348.39 658.94 337.902C658.94 87.3465 861.715 -114.263 1111.11 -114.263C1149.56 -114.263 1185.69 -109.602 1220.65 -100.279C1140.24 -212.155 1010.88 -285.573 864.046 -289.069Z" fill="#0F0F0F"/>
<path d="M190.459 -136.406C169.482 38.4006 252.224 215.537 414.211 309.933C491.126 354.217 576.198 374.029 660.105 370.532C650.782 365.871 641.459 361.21 632.136 355.383C415.376 230.688 341.958 -46.6713 466.653 -263.431C485.299 -296.062 508.606 -326.362 533.079 -352C395.565 -338.016 267.373 -262.266 190.459 -136.406Z" fill="#0F0F0F"/>
<path d="M-13.4818 523.197C127.529 628.081 322.146 645.561 484.133 552.331C561.048 508.047 620.482 443.951 658.94 370.532C650.782 376.359 641.459 382.186 632.136 386.848C415.376 511.543 139.182 438.124 13.3218 221.365C-5.32417 188.734 -20.474 153.773 -29.797 119.977C-85.735 244.672 -83.4043 393.84 -13.4818 523.197Z" fill="#0F0F0F"/>
<path d="M454.999 1028.97C615.821 960.212 728.862 799.39 728.862 612.93C728.862 523.196 703.224 440.455 658.94 370.532C660.105 381.021 660.105 391.509 660.105 401.998C660.105 652.553 457.33 854.163 207.939 854.163C169.482 854.163 133.355 849.501 98.3941 840.178C178.805 952.054 308.162 1025.47 454.999 1028.97Z" fill="#0F0F0F"/>
<path d="M1128.59 876.306C1149.56 701.499 1066.82 524.363 904.834 429.967C827.919 385.683 742.847 365.871 658.94 369.368C668.263 374.029 677.586 378.69 686.909 384.517C903.669 509.212 977.087 786.571 852.392 1003.33C833.746 1035.96 810.439 1066.26 785.966 1091.9C923.48 1077.92 1051.67 1002.17 1128.59 876.306Z" fill="#0F0F0F"/>
<path d="M1332.53 216.703C1191.52 111.819 996.898 94.3385 834.911 187.569C757.996 231.853 698.562 295.949 660.105 369.367C668.263 363.541 677.586 357.713 686.909 353.052C903.669 228.357 1179.86 301.776 1305.72 518.535C1324.37 551.166 1339.52 586.127 1348.84 619.923C1404.78 495.228 1402.45 346.059 1332.53 216.703Z" fill="#0F0F0F"/>
</g>
<g opacity="0.17">
<path d="M1113.45 -149.745C938.565 -152.022 770.07 -50.7711 694.545 119.708C658.198 201.751 648.124 287.786 660.291 369.653C663.474 359.592 667.723 350.002 671.971 340.413C773.459 111.331 1040.52 9.13494 1268.53 110.151C1303.69 125.728 1334.84 144.623 1363.02 167.308C1334.82 32.45 1246.29 -87.0724 1113.45 -149.745Z" fill="#0F0F0F"/>
<path d="M435.76 -283.003C345.776 -131.675 349.676 63.795 459.545 215.713C511.931 287.356 581.687 339.928 659.819 370.718C653.183 362.68 646.547 354.642 640.383 345.538C492.709 143.732 537.927 -139.594 739.734 -287.269C769.999 -309.55 803.582 -327.813 836.342 -341.341C704.949 -384.255 557.062 -366.922 435.76 -283.003Z" fill="#0F0F0F"/>
<path d="M-17.8743 237.462C68.5674 390.473 239.425 485.286 425.292 465.659C513.552 456.325 593.854 421.796 658.754 370.247C648.935 372.27 638.051 373.821 627.638 374.307C378.948 400.516 156.164 221.518 128.89 -27.6446C125.059 -65.031 125.368 -103.132 130.533 -137.808C28.8818 -46.4578 -29.4081 90.87 -17.8743 237.462Z" fill="#0F0F0F"/>
<path d="M205.592 889.645C380.48 891.922 548.974 790.671 624.5 620.192C660.847 538.149 670.92 452.114 658.754 370.247C655.571 380.308 651.322 389.898 647.074 399.487C545.586 628.569 278.528 730.765 50.5118 629.749C15.3504 614.172 -15.7917 595.277 -43.9803 572.592C-15.7765 707.45 72.7553 826.972 205.592 889.645Z" fill="#0F0F0F"/>
<path d="M883.285 1022.9C973.269 871.575 969.368 676.105 859.499 524.187C807.114 452.544 737.358 399.972 659.226 369.182C665.862 377.22 672.497 385.258 678.661 394.362C826.336 596.169 781.117 879.494 579.31 1027.17C549.046 1049.45 515.463 1067.71 482.703 1081.24C614.095 1124.16 761.982 1106.82 883.285 1022.9Z" fill="#0F0F0F"/>
<path d="M1336.92 502.438C1250.48 349.427 1079.62 254.614 893.753 274.241C805.493 283.576 725.191 318.104 660.291 369.653C670.11 367.63 680.994 366.079 691.406 365.593C940.096 339.384 1162.88 518.383 1190.16 767.545C1193.99 804.931 1193.68 843.033 1188.51 877.708C1290.16 786.358 1348.45 649.03 1336.92 502.438Z" fill="#0F0F0F"/>
</g>
</g>
</g>
</svg>
