<svg width="107" height="29" viewBox="0 0 107 29" fill="none" xmlns="http://www.w3.org/2000/svg">
<g id="Group 7">
<g id="BULLY">
<path d="M11.7582 28.3937H4.69815C3.62356 28.3937 2.90358 28.319 2.53822 28.1696C2.17285 28.0202 1.99017 27.7855 1.99017 27.4654V6.88463C1.99017 5.86039 5.09575 5.34827 11.3069 5.34827C14.8746 5.34827 17.3354 5.68968 18.6894 6.37251C20.0648 7.07667 20.946 7.97288 21.3329 9.06114C21.5478 9.70129 21.6552 10.4481 21.6552 11.3017C21.6552 12.9661 21.3651 14.2143 20.7848 15.0465C20.226 15.8787 19.6135 16.3482 18.9473 16.4549C19.9574 16.6683 20.7956 17.159 21.4618 17.9272C22.1281 18.6954 22.4612 19.997 22.4612 21.8321C22.4612 23.966 21.8057 25.545 20.4947 26.5692C19.3556 27.4654 17.6148 28.0309 15.2722 28.2656C14.2835 28.351 13.1122 28.3937 11.7582 28.3937ZM11.7905 14.4384C12.8866 14.4384 13.4346 13.7129 13.4346 12.2619C13.4346 11.5364 13.2842 11.0029 12.9833 10.6615C12.7039 10.2988 12.3815 10.1174 12.0161 10.1174H10.9845V14.4384H11.7905ZM10.9845 23.6245H11.7905C12.8866 23.6245 13.4346 22.899 13.4346 21.448C13.4346 20.7225 13.2842 20.1891 12.9833 19.8477C12.7039 19.4849 12.3815 19.3035 12.0161 19.3035H10.9845V23.6245Z" fill="black"/>
<path d="M45.546 19.4636C45.546 22.5363 44.6541 24.8408 42.8702 26.3772C41.1079 27.8922 38.5396 28.6497 35.1654 28.6497C31.8127 28.6497 29.2336 27.8922 27.4283 26.3772C25.623 24.8408 24.7204 22.5363 24.7204 19.4636V7.71682C24.7204 7.18336 25.3221 6.70325 26.5257 6.27648C27.7507 5.84972 29.1692 5.63633 30.7811 5.63633C32.0706 5.63633 32.9088 5.88173 33.2956 6.37251C33.575 6.7566 33.7147 7.08734 33.7147 7.36474V16.903C33.7147 19.3142 33.8007 20.9146 33.9726 21.7041C34.166 22.4723 34.5636 22.8564 35.1654 22.8564C35.7672 22.8564 36.1433 22.4829 36.2937 21.7361C36.4657 20.9679 36.5516 19.3462 36.5516 16.871V7.71682C36.5516 7.18336 37.1534 6.70325 38.3569 6.27648C39.582 5.84972 40.9897 5.63633 42.5801 5.63633C43.9341 5.63633 44.7938 5.88173 45.1591 6.37251C45.417 6.7566 45.546 7.08734 45.546 7.36474V19.4636Z" fill="black"/>
<path d="M50.8196 28.3937C49.745 28.3937 49.0251 28.3403 48.6597 28.2336C48.2943 28.1056 48.1117 27.9029 48.1117 27.6255V7.71682C48.1117 7.24738 48.7349 6.7886 49.9814 6.3405C51.228 5.87106 52.625 5.63633 54.1724 5.63633C55.5478 5.63633 56.4505 5.9244 56.8803 6.50054C57.0308 6.71392 57.106 6.9273 57.106 7.14069V21.32C59.728 21.1493 61.7053 21.0639 63.0378 21.0639C63.4891 21.0639 63.7148 21.7788 63.7148 23.2085C63.7148 24.6168 63.618 25.8331 63.4246 26.8573C63.2312 27.8815 62.9733 28.3937 62.6509 28.3937H50.8196Z" fill="black"/>
<path d="M68.3552 28.3937C67.2806 28.3937 66.5607 28.3403 66.1953 28.2336C65.8299 28.1056 65.6473 27.9029 65.6473 27.6255V7.71682C65.6473 7.24738 66.2705 6.7886 67.5171 6.3405C68.7636 5.87106 70.1606 5.63633 71.708 5.63633C73.0835 5.63633 73.9861 5.9244 74.4159 6.50054C74.5664 6.71392 74.6416 6.9273 74.6416 7.14069V21.32C77.2636 21.1493 79.2409 21.0639 80.5734 21.0639C81.0247 21.0639 81.2504 21.7788 81.2504 23.2085C81.2504 24.6168 81.1536 25.8331 80.9602 26.8573C80.7668 27.8815 80.5089 28.3937 80.1865 28.3937H68.3552Z" fill="black"/>
<path d="M97.5932 27.4654C97.5932 27.7428 96.9377 27.9669 95.6267 28.1376C94.3157 28.3083 93.0047 28.3937 91.6936 28.3937C90.4041 28.3937 89.566 28.3297 89.1791 28.2016C88.7923 28.0523 88.5988 27.8069 88.5988 27.4654V21.8961C84.3434 13.2541 82.2157 8.55969 82.2157 7.81284C82.2157 7.36474 82.9357 6.8953 84.3757 6.40451C85.8156 5.91373 87.3308 5.66834 88.9212 5.66834C90.9629 5.66834 92.0483 6.26581 92.1772 7.46076L93.0476 16.0708H93.4023L94.0148 7.68481C94.0578 7.08734 94.8207 6.60723 96.3037 6.24448C97.7866 5.86039 99.1943 5.66834 100.527 5.66834C101.859 5.66834 102.783 5.86039 103.299 6.24448C103.815 6.62857 104.073 7.03399 104.073 7.46076C104.073 7.86619 101.913 12.678 97.5932 21.8961V27.4654Z" fill="black"/>
</g>
<path id="BULLY_2" d="M88.8515 25.795L88.8287 25.7862C88.5211 25.6675 88.2067 25.4787 87.9684 25.1763C87.7195 24.8606 87.6087 24.4903 87.6087 24.1172V18.7807C85.5307 14.5578 83.9637 11.2821 82.9105 8.95835C82.3759 7.77881 81.9686 6.83342 81.6932 6.12906C81.5558 5.77787 81.4461 5.47353 81.3693 5.223C81.3034 5.00833 81.2256 4.72392 81.2256 4.46458C81.2256 3.68755 81.823 3.19716 82.2194 2.93875C82.6828 2.63658 83.3146 2.36476 84.0629 2.10971C85.6114 1.58194 87.2359 1.32007 88.931 1.32007C90.0235 1.32007 91.0017 1.4755 91.7586 1.89215C92.5009 2.3008 92.9846 2.93902 93.143 3.75132C93.3311 3.27236 93.7127 2.92351 94.0965 2.68199C94.6091 2.35943 95.288 2.11801 96.0692 1.92648C97.6198 1.52537 99.11 1.32007 100.537 1.32007C101.895 1.32007 103.111 1.50192 103.906 2.09415M88.8515 25.795L94.0246 4.33655C94.0676 3.73907 94.8305 3.25896 96.3135 2.89621C97.7964 2.51212 99.2041 2.32007 100.537 2.32007C101.869 2.32007 102.793 2.51212 103.309 2.89621C103.825 3.2803 104.083 3.68573 104.083 4.11249C104.083 4.51792 101.923 9.32972 97.603 18.5479M88.8515 25.795L88.8747 25.8027C89.19 25.907 89.5981 25.9614 90.0316 25.9945C90.4855 26.0292 91.0452 26.0454 91.7035 26.0454C93.058 26.0454 94.4122 25.9572 95.7656 25.781C96.4391 25.6933 97.0105 25.5846 97.4348 25.4395C97.6415 25.3689 97.8811 25.2675 98.0877 25.1095C98.292 24.9532 98.603 24.6273 98.603 24.1172V18.7705M88.8515 25.795L89.1889 24.8534C89.5758 24.9814 90.414 25.0454 91.7035 25.0454C93.0145 25.0454 94.3255 24.96 95.6365 24.7893C96.9475 24.6186 97.603 24.3946 97.603 24.1172V18.5479M103.906 2.09415L103.309 2.8958L103.906 2.09415C103.906 2.09415 103.906 2.09415 103.906 2.09415ZM103.906 2.09415C104.543 2.56787 105.083 3.23425 105.083 4.11249C105.083 4.28905 105.037 4.45031 105.021 4.50947L105.02 4.51188C104.994 4.60288 104.96 4.7039 104.923 4.80839C104.847 5.01922 104.739 5.29366 104.602 5.62527C104.326 6.29114 103.916 7.22927 103.375 8.43493C102.308 10.8131 100.716 14.2593 98.603 18.7705M98.603 18.7705V18.5479H97.603M98.603 18.7705C98.5716 18.8375 98.5401 18.9048 98.5085 18.9722L97.603 18.5479M19.1549 2.1341L19.1549 2.13409L19.1495 2.13136C17.5625 1.33101 14.8835 1 11.3167 1C8.19837 1 5.80263 1.12761 4.16648 1.39742C3.35833 1.53068 2.66029 1.70994 2.13888 1.96789C1.65971 2.20494 1 2.68431 1 3.53636V24.1172C1 24.4816 1.10917 24.8408 1.34785 25.1475C1.57606 25.4407 1.87638 25.6271 2.16962 25.747C2.48511 25.876 2.86907 25.9436 3.25887 25.984C3.66523 26.0262 4.151 26.0454 4.70798 26.0454H11.7681C13.1412 26.0454 14.3426 26.0022 15.368 25.9137L15.368 25.9138L15.3817 25.9124C17.8061 25.6695 19.7669 25.0733 21.1218 24.0077C22.7404 22.7423 23.471 20.8298 23.471 18.4839C23.471 16.5813 23.1361 14.9719 22.2271 13.9237L21.4716 14.5789L22.2271 13.9237C21.8896 13.5346 21.5139 13.2031 21.1023 12.93C21.287 12.7257 21.4593 12.5016 21.62 12.2629C22.367 11.1869 22.6651 9.69927 22.6651 7.95339C22.6651 7.01889 22.5478 6.1603 22.2907 5.3946L22.2879 5.38623L22.2849 5.37792C21.7871 3.97745 20.6789 2.91434 19.1549 2.1341ZM12.2008 7.92344L12.221 7.94963L12.2429 7.97442C12.3108 8.05155 12.4444 8.29464 12.4444 8.91362C12.4444 9.54184 12.3208 9.83032 12.2355 9.94325C12.2017 9.988 12.1469 10.0476 11.9943 10.0751V7.76912H12.026C12.0347 7.76912 12.038 7.76912 12.0514 7.77668C12.0711 7.78776 12.1243 7.82401 12.2008 7.92344ZM12.2008 17.1096L12.221 17.1358L12.2429 17.1606C12.3108 17.2377 12.4444 17.4808 12.4444 18.0998C12.4444 18.728 12.3208 19.0165 12.2355 19.1294C12.2017 19.1741 12.1469 19.2338 11.9943 19.2612V16.9553H12.026C12.0347 16.9553 12.038 16.9553 12.0514 16.9628C12.0711 16.9739 12.1243 17.0102 12.2008 17.1096ZM43.532 23.7872L43.5327 23.7866C45.5999 22.0061 46.5558 19.3844 46.5558 16.1153V4.01647C46.5558 3.4478 46.3013 2.91675 45.9992 2.46679L45.9856 2.4466L45.9711 2.42709C45.6091 1.9408 45.0719 1.66673 44.5247 1.51052C43.9723 1.35285 43.3173 1.28807 42.5899 1.28807C40.9119 1.28807 39.3894 1.51301 38.0378 1.98387L38.0326 1.98572C37.3856 2.21514 36.8154 2.48661 36.3891 2.82668C35.9601 3.16894 35.5615 3.68051 35.5615 4.36855V13.5227C35.5615 16.0209 35.4712 17.5284 35.3277 18.1694L35.3254 18.1799L35.3232 18.1904C35.2832 18.3892 35.2338 18.4766 35.2135 18.5061C35.2048 18.5072 35.1922 18.5081 35.1752 18.5081C35.145 18.5081 35.129 18.5048 35.1232 18.5033C35.1225 18.5027 35.1216 18.5019 35.1205 18.5008C35.1023 18.4832 35.025 18.3926 34.9561 18.1269C34.8129 17.4523 34.7245 15.9647 34.7245 13.5547V4.01647C34.7245 3.42403 34.4385 2.88189 34.1141 2.43599L34.1027 2.42037L34.0908 2.40519C33.7267 1.94326 33.2092 1.67095 32.6676 1.51239C32.1251 1.35355 31.49 1.28807 30.7909 1.28807C29.0931 1.28807 27.5594 1.51257 26.2065 1.98388L26.2065 1.98386L26.2013 1.98572C25.5543 2.21514 24.9841 2.48661 24.5578 2.82668C24.1289 3.16894 23.7302 3.68051 23.7302 4.36855V16.1153C23.7302 19.3882 24.6992 22.0111 26.7901 23.7905L26.79 23.7905L26.7953 23.7949C28.8436 25.5139 31.6851 26.3015 35.1752 26.3015C38.6828 26.3015 41.5215 25.5156 43.532 23.7872ZM48.3388 25.8291L48.3638 25.8379L48.3892 25.8453C48.9127 25.9981 49.7735 26.0454 50.8295 26.0454H62.6607C63.429 26.0454 63.8267 25.4335 63.9891 25.1111C64.1812 24.7296 64.3147 24.2367 64.4171 23.6946C64.5269 23.1129 64.6065 22.4814 64.6571 21.8015V24.2772C64.6571 24.6587 64.7914 25.0184 65.0512 25.3068C65.292 25.5739 65.5959 25.7315 65.8744 25.8291L65.8994 25.8379L65.9248 25.8453C66.4483 25.9981 67.3091 26.0454 68.3651 26.0454H80.1963C80.9646 26.0454 81.3623 25.4335 81.5247 25.1111C81.7168 24.7296 81.8503 24.2367 81.9527 23.6946C82.1609 22.5922 82.2602 21.3107 82.2602 19.8602C82.2602 19.1181 82.2046 18.4577 82.0446 17.9508C81.9005 17.4944 81.5048 16.7157 80.5832 16.7157C79.4081 16.7157 77.7612 16.7802 75.6514 16.9071V3.79242C75.6514 3.33037 75.4854 2.91979 75.2431 2.57605L75.2353 2.56506L75.2273 2.55429C74.4917 1.56836 73.1411 1.28807 71.7178 1.28807C70.0719 1.28807 68.5554 1.53742 67.1814 2.05376C66.5251 2.29015 65.9557 2.55497 65.5317 2.86704C65.1299 3.16279 64.6571 3.65473 64.6571 4.36855V18.6513C64.6232 18.395 64.575 18.1598 64.5089 17.9508C64.3649 17.4944 63.9692 16.7157 63.0476 16.7157C61.8725 16.7157 60.2256 16.7802 58.1158 16.9071V3.79242C58.1158 3.33037 57.9498 2.91979 57.7075 2.57605L57.6997 2.56506L57.6917 2.55429C56.9561 1.56836 55.6055 1.28807 54.1822 1.28807C52.5364 1.28807 51.0199 1.53741 49.6459 2.05373C48.9895 2.29013 48.4201 2.55496 47.9961 2.86704C47.5943 3.16279 47.1215 3.65473 47.1215 4.36855V24.2772C47.1215 24.6587 47.2558 25.0184 47.5156 25.3067C47.7564 25.5739 48.0603 25.7315 48.3388 25.8291Z" fill="black" stroke="#B2FEBD" stroke-width="2"/>
</g>
</svg>
