<svg width="1300" height="790" viewBox="0 0 1300 790" fill="none" xmlns="http://www.w3.org/2000/svg">
<mask id="mask0_511_1201" style="mask-type:alpha" maskUnits="userSpaceOnUse" x="0" y="0" width="1300" height="790">
<path d="M5 785H1295V5H5V785Z" fill="#B2FEBD" stroke="black" stroke-width="10"/>
</mask>
<g mask="url(#mask0_511_1201)">
<path d="M389.75 55.2766C389.708 55.7 389.833 57.5661 390.037 59.4416C390.267 61.3121 390.596 64.9243 390.824 67.417L391.194 71.9798L388.998 70.2549C385.848 67.7936 382.98 65.8186 382.607 65.8954C381.762 66.0695 382.909 67.3622 387.442 71.3788C390.809 74.3913 391.806 75.456 391.529 75.8757C391.45 75.9956 389.323 76.615 386.783 77.2417C382.12 78.3831 380.853 78.7736 379.478 79.5231C378.62 80.0109 378.425 80.699 379.049 81.0887C379.709 81.523 381.316 81.3994 386.478 80.5438C389.109 80.1058 391.372 79.7694 391.567 79.833C391.761 79.8966 391.447 80.7646 390.664 82.2475C389.271 84.9187 388.131 87.5635 388.164 88.1009C388.188 88.8475 388.388 89.0654 388.861 88.9681C389.159 88.9067 390.082 87.6022 391.404 85.3347L393.469 81.7736L393.941 83.3092C394.22 84.1589 394.627 85.7595 394.882 86.8731C395.49 89.7022 397.205 94.5063 397.791 95.0854C398.352 95.6696 398.939 95.6265 399.109 94.9435C399.188 94.6942 399.034 93.0672 398.78 91.3313C398.341 88.571 397.825 81.7838 397.998 81.4891C398.042 81.454 399.418 82.5962 401.064 84.0454C404.676 87.2408 405.011 87.4828 405.472 87.2064C406.132 86.7596 405.554 85.842 402.408 82.2656L399.206 78.6747L405.068 77.3123C411.153 75.9039 412.355 75.4491 412.037 74.6594C411.674 73.7754 408.387 73.5451 403.287 74.0767C401.765 74.2347 400.014 74.4139 399.426 74.457L398.357 74.5477L399.92 71.0642C402.171 66.0136 403.3 63.1897 403.052 63.2408C402.853 63.2818 401.569 65.2305 397.919 71.0357C396.552 73.2089 396.507 73.244 396.359 72.523C396.272 72.1003 395.606 69.7495 394.885 67.2546C394.164 64.7597 393.118 61.062 392.564 58.9992C391.985 56.9416 391.367 55.0733 391.156 54.8057C390.635 54.1615 389.885 54.4196 389.75 55.2766ZM393.057 70.4559L393.819 74.0308L393.199 73.6659C392.52 73.2616 392.602 73.6594 391.953 67.988C391.622 64.9981 392.162 66.2346 393.057 70.4559Z" fill="black"/>
<path d="M1160.95 662.403C1160.86 663.235 1161.11 666.902 1161.51 670.587C1161.96 674.262 1162.61 681.36 1163.06 686.258L1163.78 695.223L1159.47 691.834C1153.28 686.998 1147.64 683.117 1146.91 683.268C1145.25 683.61 1147.51 686.15 1156.41 694.042C1163.03 699.961 1164.99 702.053 1164.44 702.878C1164.29 703.114 1160.11 704.331 1155.12 705.562C1145.96 707.805 1143.47 708.572 1140.76 710.045C1139.08 711.003 1138.69 712.355 1139.92 713.121C1141.22 713.975 1144.37 713.732 1154.52 712.051C1159.69 711.19 1164.13 710.529 1164.52 710.654C1164.9 710.779 1164.28 712.484 1162.74 715.398C1160.01 720.647 1157.77 725.843 1157.83 726.899C1157.88 728.366 1158.27 728.795 1159.2 728.603C1159.79 728.483 1161.6 725.92 1164.2 721.464L1168.26 714.467L1169.18 717.484C1169.73 719.154 1170.53 722.299 1171.03 724.487C1172.23 730.046 1175.6 739.485 1176.75 740.623C1177.85 741.771 1179 741.686 1179.34 740.344C1179.49 739.854 1179.19 736.658 1178.69 733.247C1177.83 727.823 1176.81 714.487 1177.15 713.908C1177.24 713.839 1179.94 716.083 1183.18 718.931C1190.28 725.209 1190.93 725.685 1191.84 725.142C1193.14 724.264 1192 722.461 1185.82 715.434L1179.53 708.378L1191.04 705.701C1203 702.934 1205.36 702.04 1204.74 700.488C1204.02 698.751 1197.57 698.299 1187.55 699.343C1184.56 699.654 1181.11 700.006 1179.96 700.091L1177.86 700.269L1180.93 693.424C1185.35 683.5 1187.57 677.951 1187.08 678.052C1186.69 678.132 1184.17 681.961 1177 693.368C1174.31 697.638 1174.22 697.707 1173.93 696.29C1173.76 695.46 1172.45 690.841 1171.04 685.939C1169.62 681.036 1167.56 673.771 1166.48 669.718C1165.34 665.675 1164.12 662.004 1163.71 661.478C1162.69 660.212 1161.21 660.719 1160.95 662.403ZM1167.44 692.229L1168.94 699.253L1167.72 698.536C1166.39 697.742 1166.55 698.523 1165.27 687.38C1164.63 681.505 1165.69 683.934 1167.44 692.229Z" fill="black"/>
<path d="M1127.84 466.491C1127.8 466.874 1127.91 468.564 1128.1 470.262C1128.3 471.956 1128.6 475.227 1128.81 477.484L1129.14 481.615L1127.16 480.054C1124.3 477.825 1121.71 476.037 1121.37 476.106C1120.6 476.264 1121.64 477.434 1125.75 481.071C1128.79 483.799 1129.7 484.763 1129.45 485.143C1129.38 485.252 1127.45 485.813 1125.15 486.38C1120.93 487.414 1119.78 487.767 1118.53 488.446C1117.76 488.888 1117.58 489.511 1118.15 489.864C1118.74 490.257 1120.2 490.145 1124.87 489.37C1127.26 488.974 1129.3 488.669 1129.48 488.727C1129.66 488.784 1129.37 489.57 1128.66 490.913C1127.4 493.332 1126.37 495.726 1126.4 496.213C1126.42 496.889 1126.6 497.086 1127.03 496.998C1127.3 496.943 1128.14 495.762 1129.33 493.708L1131.2 490.484L1131.63 491.874C1131.88 492.644 1132.25 494.093 1132.48 495.101C1133.03 497.663 1134.59 502.013 1135.12 502.538C1135.62 503.067 1136.16 503.028 1136.31 502.409C1136.38 502.183 1136.24 500.71 1136.01 499.138C1135.62 496.639 1135.15 490.493 1135.3 490.226C1135.34 490.194 1136.59 491.229 1138.08 492.541C1141.35 495.434 1141.65 495.653 1142.07 495.403C1142.67 494.999 1142.15 494.168 1139.3 490.929L1136.4 487.678L1141.71 486.444C1147.22 485.169 1148.3 484.757 1148.02 484.042C1147.69 483.241 1144.71 483.033 1140.09 483.514C1138.72 483.657 1137.13 483.82 1136.6 483.859L1135.63 483.941L1137.04 480.786C1139.08 476.213 1140.11 473.656 1139.88 473.702C1139.7 473.739 1138.54 475.504 1135.23 480.761C1133.99 482.728 1133.95 482.76 1133.82 482.107C1133.74 481.725 1133.14 479.596 1132.49 477.337C1131.83 475.078 1130.89 471.729 1130.38 469.862C1129.86 467.998 1129.3 466.307 1129.11 466.064C1128.64 465.481 1127.96 465.715 1127.84 466.491ZM1130.83 480.236L1131.52 483.473L1130.96 483.142C1130.34 482.776 1130.42 483.136 1129.83 478.001C1129.53 475.294 1130.02 476.413 1130.83 480.236Z" fill="black"/>
<path d="M918.419 553.187C918.377 553.601 918.5 555.428 918.7 557.264C918.925 559.095 919.247 562.631 919.47 565.072L919.832 569.539L917.683 567.85C914.599 565.44 911.791 563.507 911.426 563.582C910.598 563.753 911.722 565.018 916.159 568.95C919.456 571.899 920.431 572.942 920.161 573.353C920.083 573.47 918.001 574.076 915.514 574.69C910.949 575.807 909.709 576.19 908.363 576.923C907.523 577.401 907.331 578.074 907.943 578.456C908.588 578.881 910.162 578.76 915.216 577.923C917.791 577.494 920.007 577.164 920.197 577.227C920.388 577.289 920.081 578.139 919.314 579.59C917.95 582.205 916.834 584.795 916.866 585.321C916.889 586.052 917.086 586.265 917.548 586.17C917.84 586.11 918.744 584.832 920.038 582.613L922.06 579.126L922.522 580.63C922.794 581.462 923.193 583.029 923.443 584.119C924.039 586.888 925.717 591.591 926.291 592.158C926.84 592.73 927.415 592.688 927.581 592.019C927.658 591.775 927.508 590.183 927.259 588.483C926.83 585.781 926.324 579.136 926.493 578.848C926.537 578.814 927.883 579.932 929.495 581.351C933.031 584.479 933.359 584.716 933.81 584.445C934.456 584.008 933.891 583.109 930.81 579.608L927.676 576.093L933.414 574.759C939.372 573.38 940.548 572.935 940.237 572.162C939.881 571.296 936.664 571.071 931.671 571.591C930.181 571.746 928.467 571.921 927.892 571.964L926.844 572.052L928.375 568.642C930.579 563.698 931.684 560.933 931.441 560.983C931.246 561.024 929.99 562.931 926.416 568.614C925.078 570.742 925.034 570.776 924.889 570.07C924.804 569.657 924.152 567.355 923.446 564.913C922.74 562.47 921.716 558.85 921.173 556.831C920.606 554.817 920.001 552.988 919.795 552.726C919.285 552.095 918.55 552.348 918.419 553.187ZM921.656 568.047L922.402 571.546L921.796 571.189C921.131 570.793 921.211 571.183 920.575 565.631C920.251 562.704 920.78 563.914 921.656 568.047Z" fill="black"/>
<path d="M233.947 524.403C233.864 525.235 234.109 528.902 234.512 532.587C234.963 536.262 235.61 543.36 236.058 548.258L236.784 557.223L232.47 553.834C226.281 548.998 220.644 545.117 219.911 545.268C218.251 545.61 220.505 548.15 229.411 556.042C236.028 561.961 237.986 564.053 237.443 564.878C237.288 565.114 233.108 566.331 228.117 567.562C218.955 569.805 216.465 570.572 213.764 572.045C212.077 573.003 211.694 574.355 212.921 575.121C214.217 575.975 217.375 575.732 227.518 574.051C232.688 573.19 237.134 572.529 237.517 572.654C237.899 572.779 237.282 574.484 235.744 577.398C233.005 582.647 230.765 587.843 230.83 588.899C230.877 590.366 231.271 590.795 232.199 590.603C232.785 590.483 234.6 587.92 237.196 583.464L241.255 576.467L242.182 579.484C242.729 581.154 243.53 584.299 244.031 586.487C245.226 592.046 248.596 601.485 249.747 602.623C250.849 603.771 252.002 603.686 252.337 602.344C252.491 601.854 252.189 598.658 251.69 595.247C250.828 589.823 249.814 576.487 250.153 575.908C250.241 575.839 252.943 578.083 256.177 580.931C263.275 587.209 263.933 587.685 264.84 587.142C266.136 586.264 265.001 584.461 258.818 577.434L252.528 570.378L264.045 567.701C276.002 564.934 278.364 564.04 277.739 562.488C277.024 560.751 270.566 560.299 260.546 561.343C257.555 561.654 254.114 562.006 252.96 562.091L250.858 562.269L253.93 555.424C258.354 545.5 260.572 539.951 260.083 540.052C259.693 540.132 257.171 543.961 249.997 555.368C247.312 559.638 247.225 559.707 246.933 558.29C246.762 557.46 245.454 552.841 244.038 547.939C242.621 543.036 240.565 535.771 239.476 531.718C238.338 527.675 237.124 524.004 236.71 523.478C235.685 522.212 234.211 522.719 233.947 524.403ZM240.444 554.229L241.942 561.253L240.725 560.536C239.39 559.742 239.551 560.523 238.275 549.38C237.625 543.505 238.686 545.934 240.444 554.229Z" fill="black"/>
<path d="M468.974 222.676C469.559 223.273 472.532 225.433 475.619 227.485C478.73 229.494 484.594 233.545 488.642 236.339L495.99 241.526L490.624 242.666C482.946 244.32 476.355 246.161 476.001 246.82C475.2 248.314 478.594 248.211 490.36 246.429C499.144 245.142 502.005 244.979 502.29 245.924C502.372 246.194 500.628 250.183 498.376 254.804C494.228 263.276 493.221 265.679 492.621 268.696C492.277 270.605 493.069 271.766 494.443 271.315C495.929 270.866 497.765 268.286 502.974 259.421C505.625 254.901 507.967 251.063 508.307 250.85C508.648 250.636 509.563 252.202 510.814 255.25C513.089 260.716 515.644 265.765 516.496 266.392C517.653 267.295 518.234 267.268 518.682 266.432C518.965 265.905 518.16 262.87 516.402 258.022L513.63 250.422L516.541 251.644C518.173 252.293 521.101 253.694 523.102 254.711C528.136 257.354 537.542 260.816 539.153 260.661C540.741 260.55 541.415 259.61 540.599 258.493C540.321 258.061 537.674 256.245 534.735 254.442C530.019 251.629 519.129 243.864 518.902 243.232C518.905 243.121 522.36 242.484 526.618 241.825C535.987 240.398 536.773 240.198 536.937 239.154C537.093 237.596 534.982 237.313 525.625 237.557L516.178 237.866L521.502 227.308C527.038 216.355 527.865 213.969 526.273 213.454C524.482 212.89 519.996 217.558 514.379 225.921C512.7 228.416 510.766 231.284 510.092 232.224L508.882 233.952L505.595 227.208C500.81 217.454 497.971 212.195 497.735 212.635C497.546 212.986 498.871 217.376 503.032 230.192C504.59 234.989 504.587 235.101 503.312 234.417C502.565 234.016 498.181 232.061 493.51 230.007C488.838 227.954 481.942 224.878 478.132 223.117C474.299 221.4 470.703 219.981 470.034 219.961C468.406 219.937 467.851 221.394 468.974 222.676ZM496.037 236.796L502.389 240.147L501.059 240.622C499.594 241.138 500.297 241.515 490.924 235.355C485.997 232.09 488.542 232.832 496.037 236.796Z" fill="black"/>
<path d="M1157.37 133.36C1156.98 133.672 1155.54 135.307 1154.16 137.016C1152.8 138.741 1150.08 141.978 1148.21 144.213L1144.74 148.263L1144.36 145.032C1143.81 140.407 1143.09 136.413 1142.72 136.168C1141.88 135.612 1141.76 137.621 1142.15 144.667C1142.43 149.924 1142.36 151.622 1141.79 151.738C1141.63 151.771 1139.37 150.52 1136.76 148.934C1131.99 146.014 1130.63 145.287 1128.88 144.765C1127.77 144.455 1127.05 144.859 1127.24 145.695C1127.42 146.597 1128.84 147.825 1133.78 151.392C1136.31 153.208 1138.44 154.804 1138.55 155.017C1138.65 155.23 1137.68 155.683 1135.81 156.252C1132.46 157.292 1129.33 158.52 1128.92 158.988C1128.32 159.621 1128.3 159.965 1128.77 160.276C1129.07 160.473 1130.9 160.166 1133.86 159.397L1138.5 158.183L1137.62 159.833C1137.15 160.761 1136.16 162.412 1135.45 163.537C1133.61 166.362 1131.04 171.723 1131.04 172.683C1131.02 173.626 1131.54 174.076 1132.24 173.656C1132.51 173.516 1133.73 172.054 1134.96 170.42C1136.88 167.791 1142.07 161.794 1142.46 161.695C1142.52 161.703 1142.71 163.778 1142.86 166.328C1143.18 171.938 1143.26 172.414 1143.86 172.569C1144.77 172.747 1145.06 171.516 1145.43 165.979L1145.78 160.384L1151.71 164.114C1157.87 167.99 1159.24 168.611 1159.63 167.7C1160.06 166.674 1157.55 163.767 1152.93 159.986C1151.55 158.856 1149.96 157.555 1149.44 157.105L1148.49 156.294L1152.66 154.728C1158.68 152.445 1161.94 151.061 1161.7 150.897C1161.5 150.766 1158.83 151.305 1151.04 153.05C1148.12 153.703 1148.05 153.695 1148.53 152.98C1148.8 152.562 1150.2 150.082 1151.67 147.438C1153.15 144.794 1155.35 140.894 1156.6 138.742C1157.82 136.575 1158.86 134.53 1158.91 134.136C1159.01 133.177 1158.18 132.768 1157.37 133.36ZM1147.53 148.553L1145.19 152.117L1144.99 151.306C1144.77 150.412 1144.5 150.806 1148.66 145.614C1150.86 142.887 1150.28 144.348 1147.53 148.553Z" fill="black"/>
<path d="M1118.82 258.01C1118.79 258.278 1118.87 259.461 1119 260.649C1119.15 261.834 1119.35 264.123 1119.5 265.702L1119.73 268.593L1118.34 267.5C1116.35 265.941 1114.53 264.689 1114.29 264.738C1113.76 264.848 1114.48 265.667 1117.36 268.212C1119.49 270.121 1120.12 270.796 1119.95 271.061C1119.9 271.137 1118.55 271.53 1116.94 271.927C1113.98 272.65 1113.18 272.898 1112.31 273.372C1111.77 273.681 1111.64 274.117 1112.04 274.364C1112.46 274.64 1113.47 274.561 1116.75 274.019C1118.41 273.742 1119.85 273.528 1119.97 273.569C1120.09 273.609 1119.89 274.159 1119.4 275.099C1118.52 276.791 1117.79 278.467 1117.81 278.807C1117.83 279.28 1117.96 279.418 1118.26 279.357C1118.44 279.318 1119.03 278.491 1119.87 277.055L1121.18 274.798L1121.47 275.771C1121.65 276.31 1121.91 277.324 1122.07 278.029C1122.46 279.822 1123.54 282.866 1123.91 283.233C1124.27 283.603 1124.64 283.575 1124.75 283.143C1124.8 282.985 1124.7 281.954 1124.54 280.854C1124.26 279.105 1123.94 274.805 1124.04 274.618C1124.07 274.596 1124.94 275.32 1125.99 276.238C1128.28 278.262 1128.49 278.416 1128.78 278.241C1129.2 277.957 1128.83 277.376 1126.84 275.11L1124.81 272.835L1128.52 271.972C1132.38 271.079 1133.14 270.791 1132.94 270.291C1132.71 269.731 1130.63 269.585 1127.4 269.922C1126.43 270.022 1125.32 270.135 1124.95 270.163L1124.27 270.22L1125.26 268.013C1126.69 264.813 1127.4 263.024 1127.25 263.056C1127.12 263.082 1126.31 264.317 1123.99 267.995C1123.13 269.372 1123.1 269.394 1123.01 268.937C1122.95 268.669 1122.53 267.18 1122.07 265.599C1121.62 264.019 1120.95 261.676 1120.6 260.369C1120.23 259.065 1119.84 257.881 1119.71 257.712C1119.38 257.304 1118.9 257.467 1118.82 258.01ZM1120.91 267.628L1121.4 269.893L1121 269.661C1120.57 269.405 1120.63 269.657 1120.21 266.064C1120 264.17 1120.35 264.953 1120.91 267.628Z" fill="black"/>
<path d="M68.9791 701.71C68.9522 701.978 69.0315 703.16 69.1612 704.348C69.3067 705.534 69.5152 707.822 69.6598 709.402L69.8938 712.293L68.503 711.2C66.5071 709.64 64.6896 708.389 64.4533 708.438C63.9178 708.548 64.6447 709.367 67.5166 711.912C69.6501 713.82 70.2816 714.495 70.1065 714.761C70.0564 714.837 68.7087 715.229 67.0993 715.626C64.1449 716.35 63.342 716.597 62.471 717.072C61.9271 717.381 61.8034 717.817 62.1991 718.064C62.617 718.339 63.6353 718.261 66.9061 717.719C68.573 717.441 70.0069 717.228 70.1301 717.268C70.2534 717.309 70.0546 717.858 69.5585 718.798C68.6754 720.49 67.9532 722.166 67.974 722.507C67.9893 722.98 68.1163 723.118 68.4156 723.056C68.6046 723.017 69.1897 722.191 70.0269 720.754L71.3356 718.498L71.6345 719.471C71.811 720.009 72.0691 721.023 72.2308 721.729C72.6162 723.521 73.7027 726.565 74.0738 726.932C74.4291 727.302 74.8012 727.275 74.9091 726.842C74.9587 726.684 74.8614 725.653 74.7006 724.553C74.4226 722.805 74.0955 718.504 74.2048 718.318C74.2331 718.295 75.1045 719.019 76.1474 719.937C78.4361 721.962 78.6483 722.115 78.9406 721.94C79.3585 721.657 78.9925 721.075 76.9989 718.81L74.9706 716.534L78.6843 715.671C82.5398 714.779 83.3015 714.491 83.0999 713.99C82.8697 713.43 80.7872 713.284 77.5562 713.621C76.5916 713.721 75.482 713.835 75.11 713.862L74.4322 713.92L75.4227 711.712C76.8491 708.512 77.5644 706.723 77.4069 706.756C77.2809 706.782 76.4678 708.016 74.1547 711.694C73.2888 713.071 73.2605 713.094 73.1665 712.637C73.1113 712.369 72.6897 710.879 72.2329 709.299C71.7761 707.718 71.1131 705.375 70.7619 704.068C70.3949 702.764 70.0035 701.581 69.87 701.411C69.5397 701.003 69.0644 701.167 68.9791 701.71ZM71.0742 711.327L71.557 713.592L71.1646 713.361C70.7342 713.105 70.7861 713.357 70.3747 709.763C70.1652 707.869 70.5071 708.652 71.0742 711.327Z" fill="black"/>
<path d="M802.979 690.71C802.952 690.978 803.031 692.16 803.161 693.348C803.307 694.534 803.515 696.822 803.66 698.402L803.894 701.293L802.503 700.2C800.507 698.64 798.689 697.389 798.453 697.438C797.918 697.548 798.645 698.367 801.517 700.912C803.65 702.82 804.281 703.495 804.106 703.761C804.056 703.837 802.709 704.229 801.099 704.626C798.145 705.35 797.342 705.597 796.471 706.072C795.927 706.381 795.803 706.817 796.199 707.064C796.617 707.339 797.635 707.261 800.906 706.719C802.573 706.441 804.007 706.228 804.13 706.268C804.253 706.309 804.055 706.858 803.558 707.798C802.675 709.49 801.953 711.166 801.974 711.507C801.989 711.98 802.116 712.118 802.415 712.056C802.604 712.017 803.19 711.191 804.027 709.754L805.336 707.498L805.634 708.471C805.811 709.009 806.069 710.023 806.231 710.729C806.616 712.521 807.703 715.565 808.074 715.932C808.429 716.302 808.801 716.275 808.909 715.842C808.959 715.684 808.861 714.653 808.7 713.553C808.422 711.805 808.095 707.504 808.205 707.318C808.233 707.295 809.104 708.019 810.147 708.937C812.436 710.962 812.648 711.115 812.94 710.94C813.358 710.657 812.992 710.075 810.999 707.81L808.97 705.534L812.684 704.671C816.54 703.779 817.301 703.491 817.1 702.99C816.87 702.43 814.787 702.284 811.556 702.621C810.591 702.721 809.482 702.835 809.11 702.862L808.432 702.92L809.423 700.712C810.849 697.512 811.564 695.723 811.407 695.756C811.281 695.782 810.468 697.016 808.155 700.694C807.289 702.071 807.26 702.094 807.166 701.637C807.111 701.369 806.69 699.879 806.233 698.299C805.776 696.718 805.113 694.375 804.762 693.068C804.395 691.764 804.003 690.581 803.87 690.411C803.54 690.003 803.064 690.167 802.979 690.71ZM805.074 700.327L805.557 702.592L805.164 702.361C804.734 702.105 804.786 702.357 804.375 698.763C804.165 696.869 804.507 697.652 805.074 700.327Z" fill="black"/>
<path d="M81.9791 313.71C81.9522 313.978 82.0315 315.16 82.1612 316.349C82.3067 317.534 82.5152 319.822 82.6598 321.402L82.8938 324.293L81.503 323.2C79.5071 321.64 77.6896 320.389 77.4533 320.438C76.9178 320.548 77.6447 321.367 80.5166 323.912C82.6501 325.821 83.2816 326.495 83.1065 326.761C83.0564 326.837 81.7087 327.229 80.0993 327.626C77.1449 328.35 76.342 328.597 75.471 329.072C74.9271 329.381 74.8034 329.817 75.1991 330.064C75.617 330.339 76.6353 330.261 79.9061 329.719C81.573 329.441 83.0069 329.228 83.1301 329.268C83.2534 329.309 83.0546 329.859 82.5585 330.798C81.6754 332.491 80.9532 334.166 80.974 334.507C80.9893 334.98 81.1163 335.118 81.4156 335.056C81.6046 335.017 82.1897 334.191 83.0269 332.754L84.3356 330.498L84.6345 331.471C84.811 332.009 85.0691 333.023 85.2308 333.729C85.6162 335.521 86.7027 338.565 87.0738 338.932C87.4291 339.302 87.8012 339.275 87.9091 338.842C87.9587 338.684 87.8614 337.653 87.7006 336.554C87.4226 334.805 87.0955 330.504 87.2048 330.318C87.2331 330.295 88.1045 331.019 89.1474 331.937C91.4361 333.962 91.6483 334.115 91.9406 333.94C92.3585 333.657 91.9925 333.076 89.9989 330.81L87.9706 328.534L91.6843 327.671C95.5398 326.779 96.3015 326.491 96.0999 325.99C95.8697 325.43 93.7872 325.284 90.5562 325.621C89.5916 325.721 88.482 325.835 88.11 325.862L87.4322 325.92L88.4227 323.712C89.8491 320.513 90.5644 318.723 90.4069 318.756C90.2809 318.782 89.4678 320.016 87.1547 323.694C86.2888 325.071 86.2605 325.094 86.1665 324.637C86.1113 324.369 85.6897 322.88 85.2329 321.299C84.7761 319.718 84.1131 317.375 83.7619 316.068C83.3949 314.765 83.0035 313.581 82.87 313.411C82.5397 313.003 82.0644 313.167 81.9791 313.71ZM84.0742 323.327L84.557 325.592L84.1646 325.361C83.7342 325.105 83.7861 325.357 83.3747 321.763C83.1652 319.869 83.5071 320.653 84.0742 323.327Z" fill="black"/>
<path d="M378.979 677.71C378.952 677.978 379.031 679.16 379.161 680.349C379.307 681.534 379.515 683.822 379.66 685.402L379.894 688.293L378.503 687.2C376.507 685.64 374.689 684.389 374.453 684.438C373.918 684.548 374.645 685.367 377.517 687.912C379.65 689.821 380.281 690.495 380.106 690.761C380.056 690.837 378.709 691.229 377.099 691.626C374.145 692.35 373.342 692.597 372.471 693.072C371.927 693.381 371.803 693.817 372.199 694.064C372.617 694.339 373.635 694.261 376.906 693.719C378.573 693.441 380.007 693.228 380.13 693.268C380.253 693.309 380.055 693.859 379.558 694.798C378.675 696.491 377.953 698.166 377.974 698.507C377.989 698.98 378.116 699.118 378.415 699.056C378.604 699.017 379.19 698.191 380.027 696.754L381.336 694.498L381.634 695.471C381.811 696.009 382.069 697.023 382.231 697.729C382.616 699.521 383.703 702.565 384.074 702.932C384.429 703.302 384.801 703.275 384.909 702.842C384.959 702.684 384.861 701.653 384.7 700.554C384.422 698.805 384.095 694.504 384.205 694.318C384.233 694.295 385.104 695.019 386.147 695.937C388.436 697.962 388.648 698.115 388.94 697.94C389.358 697.657 388.992 697.076 386.999 694.81L384.97 692.534L388.684 691.671C392.54 690.779 393.301 690.491 393.1 689.99C392.87 689.43 390.787 689.284 387.556 689.621C386.591 689.721 385.482 689.835 385.11 689.862L384.432 689.92L385.423 687.712C386.849 684.513 387.564 682.723 387.407 682.756C387.281 682.782 386.468 684.016 384.155 687.694C383.289 689.071 383.26 689.094 383.166 688.637C383.111 688.369 382.69 686.88 382.233 685.299C381.776 683.718 381.113 681.375 380.762 680.068C380.395 678.765 380.003 677.581 379.87 677.411C379.54 677.003 379.064 677.167 378.979 677.71ZM381.074 687.327L381.557 689.592L381.164 689.361C380.734 689.105 380.786 689.357 380.375 685.763C380.165 683.869 380.507 684.653 381.074 687.327Z" fill="black"/>
<path d="M875.979 55.7096C875.952 55.9778 876.031 57.1602 876.161 58.3485C876.307 59.5336 876.515 61.8222 876.66 63.4016L876.894 66.2925L875.503 65.1996C873.507 63.6402 871.689 62.3889 871.453 62.4376C870.918 62.5478 871.645 63.3669 874.517 65.9117C876.65 67.8205 877.281 68.495 877.106 68.7609C877.056 68.8369 875.709 69.2293 874.099 69.6264C871.145 70.3496 870.342 70.597 869.471 71.0719C868.927 71.381 868.803 71.8169 869.199 72.0638C869.617 72.339 870.635 72.2607 873.906 71.7186C875.573 71.4411 877.007 71.228 877.13 71.2683C877.253 71.3086 877.055 71.8585 876.558 72.7981C875.675 74.4905 874.953 76.1662 874.974 76.5067C874.989 76.9797 875.116 77.1178 875.415 77.0562C875.604 77.0173 876.19 76.1907 877.027 74.7541L878.336 72.4978L878.634 73.4707C878.811 74.0091 879.069 75.0232 879.231 75.7288C879.616 77.5213 880.703 80.5651 881.074 80.932C881.429 81.3022 881.801 81.2748 881.909 80.8421C881.959 80.6841 881.861 79.6533 881.7 78.5535C881.422 76.8045 881.095 72.5043 881.205 72.3176C881.233 72.2953 882.104 73.019 883.147 73.9372C885.436 75.9618 885.648 76.1151 885.94 75.94C886.358 75.6569 885.992 75.0755 883.999 72.8095L881.97 70.5344L885.684 69.6712C889.54 68.7788 890.301 68.4907 890.1 67.9903C889.87 67.4302 887.787 67.2843 884.556 67.6211C883.591 67.7212 882.482 67.8347 882.11 67.8621L881.432 67.9195L882.423 65.7124C883.849 62.5124 884.564 60.7232 884.407 60.7556C884.281 60.7816 883.468 62.0163 881.155 65.6944C880.289 67.0713 880.26 67.0935 880.166 66.6367C880.111 66.3689 879.69 64.8795 879.233 63.2987C878.776 61.718 878.113 59.3751 877.762 58.0682C877.395 56.7645 877.003 55.5808 876.87 55.4112C876.54 55.0031 876.064 55.1666 875.979 55.7096ZM878.074 65.327L878.557 67.592L878.164 67.3609C877.734 67.1047 877.786 67.3567 877.375 63.7634C877.165 61.869 877.507 62.6524 878.074 65.327Z" fill="black"/>
<path d="M161.872 76.1244C161.821 76.6317 161.971 78.8677 162.217 81.1151C162.492 83.3563 162.886 87.6846 163.159 90.6714L163.602 96.1387L160.972 94.0719C157.197 91.1228 153.76 88.7563 153.313 88.8483C152.3 89.0568 153.675 90.6059 159.106 95.4186C163.141 99.0284 164.335 100.304 164.004 100.807C163.91 100.951 161.361 101.693 158.317 102.444C152.73 103.812 151.211 104.279 149.564 105.178C148.536 105.762 148.302 106.586 149.05 107.053C149.84 107.574 151.766 107.426 157.952 106.401C161.104 105.876 163.816 105.473 164.049 105.549C164.282 105.625 163.906 106.665 162.968 108.442C161.298 111.643 159.932 114.812 159.971 115.456C160 116.35 160.24 116.611 160.806 116.495C161.164 116.421 162.27 114.858 163.854 112.141L166.329 107.874L166.894 109.714C167.228 110.732 167.716 112.65 168.022 113.985C168.751 117.374 170.805 123.131 171.507 123.825C172.179 124.525 172.883 124.473 173.087 123.655C173.181 123.356 172.997 121.407 172.693 119.327C172.167 116.019 171.548 107.886 171.755 107.533C171.808 107.491 173.456 108.86 175.429 110.596C179.757 114.425 180.158 114.715 180.711 114.384C181.502 113.849 180.809 112.749 177.039 108.464L173.203 104.161L180.227 102.528C187.518 100.841 188.958 100.296 188.577 99.3496C188.142 98.2903 184.203 98.0144 178.093 98.6514C176.269 98.8407 174.17 99.0554 173.467 99.1071L172.185 99.2158L174.058 95.0416C176.756 88.9899 178.109 85.6061 177.811 85.6674C177.572 85.7165 176.035 88.0515 171.66 95.0075C170.023 97.6115 169.969 97.6536 169.791 96.7897C169.687 96.2832 168.89 93.4664 168.026 90.4769C167.162 87.4874 165.908 83.0566 165.244 80.5849C164.55 78.1194 163.809 75.8808 163.557 75.5601C162.932 74.7882 162.033 75.0975 161.872 76.1244ZM165.834 94.3128L166.748 98.5964L166.005 98.1592C165.191 97.6747 165.29 98.1513 164.511 91.3557C164.115 87.7731 164.762 89.2547 165.834 94.3128Z" fill="black"/>
<path d="M595.294 688.725C594.465 688.828 590.944 689.882 587.44 691.092C583.957 692.348 577.18 694.554 572.504 696.079L563.923 698.776L566.27 693.818C569.612 686.71 572.144 680.352 571.834 679.671C571.132 678.128 569.156 680.89 563.438 691.326C559.135 699.091 557.53 701.465 556.605 701.119C556.341 701.02 554.227 697.215 551.918 692.621C547.697 684.186 546.396 681.928 544.361 679.621C543.052 678.189 541.648 678.116 541.174 679.482C540.63 680.935 541.568 683.96 545.459 693.478C547.445 698.327 549.077 702.516 549.04 702.916C549.003 703.317 547.203 703.094 544.02 702.241C538.295 700.736 532.731 699.706 531.715 700.003C530.295 700.375 529.965 700.854 530.358 701.716C530.606 702.261 533.508 703.462 538.428 705.004L546.152 707.408L543.416 708.982C541.909 709.886 539.02 711.364 536.998 712.339C531.843 714.739 523.387 720.12 522.533 721.494C521.659 722.824 521.997 723.93 523.38 723.958C523.892 723.999 526.942 722.995 530.157 721.752C535.254 719.708 548.032 715.758 548.672 715.96C548.759 716.03 547.17 719.163 545.112 722.949C540.566 731.263 540.248 732.011 540.979 732.774C542.122 733.843 543.629 732.336 549.108 724.748L554.591 717.048L559.758 727.683C565.111 738.728 566.506 740.832 567.881 739.878C569.416 738.797 568.423 732.399 565.18 722.861C564.214 720.013 563.107 716.736 562.768 715.63L562.128 713.62L569.483 715.096C580.142 717.206 586.044 718.137 585.838 717.683C585.673 717.32 581.379 715.711 568.665 711.249C563.905 709.578 563.819 709.508 565.135 708.909C565.907 708.558 570.121 706.258 574.586 703.788C579.052 701.319 585.68 697.701 589.39 695.74C593.079 693.732 596.389 691.734 596.81 691.214C597.817 689.934 596.995 688.609 595.294 688.725ZM567.655 701.681L561.138 704.7L561.567 703.355C562.046 701.877 561.319 702.207 571.902 698.489C577.486 696.552 575.352 698.125 567.655 701.681Z" fill="black"/>
</g>
</svg>
