<svg width="1320" height="800" viewBox="0 0 1320 800" fill="none" xmlns="http://www.w3.org/2000/svg">
<mask id="mask0_511_1240" style="mask-type:alpha" maskUnits="userSpaceOnUse" x="0" y="-13" width="1320" height="813">
<path d="M5 795H1315V-8H5V795Z" fill="#B2FEBD" stroke="black" stroke-width="10"/>
</mask>
<g mask="url(#mask0_511_1240)">
<path d="M100.326 19.3681C100.326 33.4621 88.9007 44.8875 74.8067 44.8875C60.7127 44.8875 49.2873 33.4621 49.2873 19.3681C49.2873 5.27405 60.7127 -6.15139 74.8067 -6.15139C88.9007 -6.15139 100.326 5.27407 100.326 19.3681Z" stroke="#0F0F0F" stroke-width="8"/>
<path d="M24.8875 19.3681C24.8875 33.4621 13.462 44.8875 -0.63205 44.8875C-14.726 44.8875 -26.1514 33.4621 -26.1514 19.3681C-26.1514 5.27405 -14.726 -6.15139 -0.63205 -6.15139C13.462 -6.15139 24.8875 5.27407 24.8875 19.3681Z" stroke="#0F0F0F" stroke-width="8"/>
<path d="M175.765 19.3681C175.765 33.4621 164.339 44.8875 150.245 44.8875C136.151 44.8875 124.726 33.4621 124.726 19.3681C124.726 5.27407 136.151 -6.15139 150.245 -6.15139C164.339 -6.15139 175.765 5.27405 175.765 19.3681Z" stroke="#0F0F0F" stroke-width="8"/>
<path d="M251.613 19.3681C251.613 33.4621 240.188 44.8875 226.094 44.8875C212 44.8875 200.574 33.4621 200.574 19.3681C200.574 5.27407 212 -6.15139 226.094 -6.15139C240.188 -6.15139 251.613 5.27405 251.613 19.3681Z" stroke="#0F0F0F" stroke-width="8"/>
<path d="M327.052 19.3681C327.052 33.4621 315.626 44.8875 301.532 44.8875C287.438 44.8875 276.013 33.4621 276.013 19.3681C276.013 5.27405 287.438 -6.15139 301.532 -6.15139C315.626 -6.15139 327.052 5.27407 327.052 19.3681Z" stroke="#0F0F0F" stroke-width="8"/>
<path d="M251.613 397.381C251.613 411.475 240.188 422.9 226.094 422.9C212 422.9 200.574 411.475 200.574 397.381C200.574 383.287 212 371.861 226.094 371.861C240.188 371.861 251.613 383.287 251.613 397.381Z" stroke="#0F0F0F" stroke-width="8"/>
<path d="M175.765 397.381C175.765 411.475 164.339 422.9 150.245 422.9C136.151 422.9 124.726 411.475 124.726 397.381C124.726 383.287 136.151 371.861 150.245 371.861C164.339 371.861 175.765 383.287 175.765 397.381Z" stroke="#0F0F0F" stroke-width="8"/>
<path d="M100.326 397.381C100.326 411.475 88.9007 422.9 74.8067 422.9C60.7127 422.9 49.2873 411.475 49.2873 397.381C49.2873 383.287 60.7127 371.861 74.8067 371.861C88.9007 371.861 100.326 383.287 100.326 397.381Z" stroke="#0F0F0F" stroke-width="8"/>
<path d="M251.613 321.532C251.613 335.626 240.188 347.052 226.094 347.052C212 347.052 200.574 335.626 200.574 321.532C200.574 307.438 212 296.013 226.094 296.013C240.188 296.013 251.613 307.438 251.613 321.532Z" stroke="#0F0F0F" stroke-width="8"/>
<path d="M327.052 321.532C327.052 335.626 315.626 347.052 301.532 347.052C287.438 347.052 276.013 335.626 276.013 321.532C276.013 307.438 287.438 296.013 301.532 296.013C315.626 296.013 327.052 307.438 327.052 321.532Z" stroke="#0F0F0F" stroke-width="8"/>
<path d="M175.765 321.532C175.765 335.626 164.339 347.052 150.245 347.052C136.151 347.052 124.726 335.626 124.726 321.532C124.726 307.438 136.151 296.013 150.245 296.013C164.339 296.013 175.765 307.438 175.765 321.532Z" stroke="#0F0F0F" stroke-width="8"/>
<path d="M100.326 321.532C100.326 335.626 88.9007 347.052 74.8067 347.052C60.7127 347.052 49.2873 335.626 49.2873 321.532C49.2873 307.438 60.7127 296.013 74.8067 296.013C88.9007 296.013 100.326 307.438 100.326 321.532Z" stroke="#0F0F0F" stroke-width="8"/>
<path d="M24.8875 321.532C24.8875 335.626 13.462 347.052 -0.63205 347.052C-14.726 347.052 -26.1514 335.626 -26.1514 321.532C-26.1514 307.438 -14.726 296.013 -0.63205 296.013C13.462 296.013 24.8875 307.438 24.8875 321.532Z" stroke="#0F0F0F" stroke-width="8"/>
<path d="M100.326 94.8067C100.326 108.901 88.9007 120.326 74.8067 120.326C60.7127 120.326 49.2873 108.901 49.2873 94.8067C49.2873 80.7127 60.7127 69.2873 74.8067 69.2873C88.9007 69.2873 100.326 80.7128 100.326 94.8067Z" stroke="#0F0F0F" stroke-width="8"/>
<path d="M24.8875 94.8067C24.8875 108.901 13.462 120.326 -0.63205 120.326C-14.726 120.326 -26.1514 108.901 -26.1514 94.8067C-26.1514 80.7127 -14.726 69.2873 -0.63205 69.2873C13.462 69.2873 24.8875 80.7128 24.8875 94.8067Z" stroke="#0F0F0F" stroke-width="8"/>
<path d="M175.765 94.8067C175.765 108.901 164.339 120.326 150.245 120.326C136.151 120.326 124.726 108.901 124.726 94.8067C124.726 80.7128 136.151 69.2873 150.245 69.2873C164.339 69.2873 175.765 80.7127 175.765 94.8067Z" stroke="#0F0F0F" stroke-width="8"/>
<path d="M251.613 94.8067C251.613 108.901 240.188 120.326 226.094 120.326C212 120.326 200.574 108.901 200.574 94.8067C200.574 80.7128 212 69.2873 226.094 69.2873C240.188 69.2873 251.613 80.7127 251.613 94.8067Z" stroke="#0F0F0F" stroke-width="8"/>
<path d="M327.052 94.8067C327.052 108.901 315.626 120.326 301.532 120.326C287.438 120.326 276.013 108.901 276.013 94.8067C276.013 80.7127 287.438 69.2873 301.532 69.2873C315.626 69.2873 327.052 80.7128 327.052 94.8067Z" stroke="#0F0F0F" stroke-width="8"/>
<path d="M402.9 94.8067C402.9 108.901 391.475 120.326 377.381 120.326C363.287 120.326 351.862 108.901 351.862 94.8067C351.862 80.7127 363.287 69.2873 377.381 69.2873C391.475 69.2873 402.9 80.7128 402.9 94.8067Z" stroke="#0F0F0F" stroke-width="8"/>
<path d="M100.326 170.245C100.326 184.339 88.9007 195.765 74.8067 195.765C60.7127 195.765 49.2873 184.339 49.2873 170.245C49.2873 156.151 60.7127 144.726 74.8067 144.726C88.9007 144.726 100.326 156.151 100.326 170.245Z" stroke="#0F0F0F" stroke-width="8"/>
<path d="M24.8875 170.245C24.8875 184.339 13.462 195.765 -0.63205 195.765C-14.726 195.765 -26.1514 184.339 -26.1514 170.245C-26.1514 156.151 -14.726 144.726 -0.63205 144.726C13.462 144.726 24.8875 156.151 24.8875 170.245Z" stroke="#0F0F0F" stroke-width="8"/>
<path d="M175.765 170.245C175.765 184.339 164.339 195.765 150.245 195.765C136.151 195.765 124.726 184.339 124.726 170.245C124.726 156.151 136.151 144.726 150.245 144.726C164.339 144.726 175.765 156.151 175.765 170.245Z" stroke="#0F0F0F" stroke-width="8"/>
<path d="M251.613 170.245C251.613 184.339 240.188 195.765 226.094 195.765C212 195.765 200.574 184.339 200.574 170.245C200.574 156.151 212 144.726 226.094 144.726C240.188 144.726 251.613 156.151 251.613 170.245Z" stroke="#0F0F0F" stroke-width="8"/>
<path d="M327.052 170.245C327.052 184.339 315.626 195.765 301.532 195.765C287.438 195.765 276.013 184.339 276.013 170.245C276.013 156.151 287.438 144.726 301.532 144.726C315.626 144.726 327.052 156.151 327.052 170.245Z" stroke="#0F0F0F" stroke-width="8"/>
<path d="M402.9 170.245C402.9 184.339 391.475 195.765 377.381 195.765C363.287 195.765 351.862 184.339 351.862 170.245C351.862 156.151 363.287 144.726 377.381 144.726C391.475 144.726 402.9 156.151 402.9 170.245Z" stroke="#0F0F0F" stroke-width="8"/>
<path d="M100.326 246.094C100.326 260.188 88.9007 271.613 74.8067 271.613C60.7127 271.613 49.2873 260.188 49.2873 246.094C49.2873 232 60.7127 220.575 74.8067 220.575C88.9007 220.575 100.326 232 100.326 246.094Z" stroke="#0F0F0F" stroke-width="8"/>
<path d="M24.8875 246.094C24.8875 260.188 13.462 271.613 -0.63205 271.613C-14.726 271.613 -26.1514 260.188 -26.1514 246.094C-26.1514 232 -14.726 220.575 -0.63205 220.575C13.462 220.575 24.8875 232 24.8875 246.094Z" stroke="#0F0F0F" stroke-width="8"/>
<path d="M175.765 246.094C175.765 260.188 164.339 271.613 150.245 271.613C136.151 271.613 124.726 260.188 124.726 246.094C124.726 232 136.151 220.575 150.245 220.575C164.339 220.575 175.765 232 175.765 246.094Z" stroke="#0F0F0F" stroke-width="8"/>
<path d="M251.613 246.094C251.613 260.188 240.188 271.613 226.094 271.613C212 271.613 200.574 260.188 200.574 246.094C200.574 232 212 220.575 226.094 220.575C240.188 220.575 251.613 232 251.613 246.094Z" stroke="#0F0F0F" stroke-width="8"/>
<path d="M327.052 246.094C327.052 260.188 315.626 271.613 301.532 271.613C287.438 271.613 276.013 260.188 276.013 246.094C276.013 232 287.438 220.575 301.532 220.575C315.626 220.575 327.052 232 327.052 246.094Z" stroke="#0F0F0F" stroke-width="8"/>
<path d="M402.9 246.094C402.9 260.188 391.475 271.613 377.381 271.613C363.287 271.613 351.862 260.188 351.862 246.094C351.862 232 363.287 220.575 377.381 220.575C391.475 220.575 402.9 232 402.9 246.094Z" stroke="#0F0F0F" stroke-width="8"/>
</g>
</svg>
