<svg width="296" height="63" viewBox="0 0 296 63" fill="none" xmlns="http://www.w3.org/2000/svg">
<path d="M247.289 0.945122C246.027 1.53895 242.465 4.35962 239.496 7.1803C236.527 10.001 233.336 12.599 232.371 12.8959C231.109 13.267 229.551 12.599 225.766 10.0752C218.344 5.17614 216.415 4.35962 212.11 4.35962C207.583 4.35962 203.946 5.84419 197.415 10.2979C191.626 14.232 184.205 17.7207 181.681 17.7207C180.271 17.7207 178.119 16.3846 174.631 13.267C167.58 7.03185 164.166 5.47305 157.71 5.47305C150.882 5.54728 146.874 7.47721 135.816 16.3104C125.648 24.4013 120.676 27.3704 117.41 27.3704C115.777 27.3704 112.809 26.0343 108.207 23.2878C100.711 18.7599 97.817 17.7207 92.4735 17.7207C86.9072 17.7207 82.6027 20.5414 75.3295 28.9292C67.6852 37.6881 63.6776 40.0634 55.4395 40.583C50.9866 40.88 48.9827 40.583 43.7876 38.8758C35.0301 35.9809 27.9795 35.9809 21.968 38.7273C10.6871 43.9233 0 54.538 0 60.5505C0 61.8866 0.296865 63 0.667946 63C1.03903 63 2.67179 61.2185 4.37876 58.9917C7.79271 54.3895 14.1753 49.5647 22.0422 45.6306C29.2412 42.0676 32.4325 42.0676 40.8189 45.7048C46.9789 48.4512 47.2758 48.5255 56.4044 48.5255C70.0602 48.5255 72.8804 46.9667 84.3097 33.2344C86.9072 30.1169 90.0243 27.1477 91.286 26.6281C94.6257 25.2178 99.524 26.1085 103.68 28.7065C116.223 36.7974 116.668 36.8716 125.797 32.2695C129.507 30.4138 135.296 26.6281 138.71 23.8817C147.839 16.4588 150.288 14.8258 153.702 13.6382C160.604 11.1886 164.463 12.5247 171.365 19.5764C173.889 22.2486 176.857 24.624 177.822 24.8466C182.869 26.1085 191.33 23.1394 201.868 16.2362C209.29 11.4113 212.778 10.5206 216.934 12.3763C218.641 13.1186 221.832 15.3454 224.059 17.2011C230.887 23.0652 235.266 22.6198 242.91 15.5681C248.847 10.1494 251.519 8.07104 252.855 8.07104C253.449 8.07104 255.452 9.55561 257.382 11.3371C262.651 16.2362 265.026 17.2011 270.889 16.83C275.12 16.6073 277.049 16.0135 283.135 12.8959C291.002 8.88755 296.42 4.50808 295.974 2.42969C295.381 -0.539444 293.748 -0.316761 282.764 3.98848C269.108 9.40715 267.698 9.62983 263.839 6.6607C255.156 -0.0198479 251.964 -1.13327 247.289 0.945122Z" fill="black"/>
</svg>
